<svg width="1466" height="1016" viewBox="0 0 1466 1016" fill="none" xmlns="http://www.w3.org/2000/svg">
<line y1="-15" x2="818.603" y2="-15" transform="matrix(-0.00504963 -0.999987 0.999992 -0.0038782 74.3462 1014.8)" stroke="#D3AD7F" stroke-opacity="0.75" stroke-width="30"/>
<line y1="-15" x2="791.497" y2="-15" transform="matrix(-0.00504896 -0.999987 0.999992 -0.00387768 852.809 1014.8)" stroke="#D3AD7F" stroke-opacity="0.75" stroke-width="30"/>
<line y1="-15" x2="710.565" y2="-15" transform="matrix(0.640426 0.76802 -0.842111 0.539304 0 16.1794)" stroke="#D3AD7F" stroke-opacity="0.75" stroke-width="30"/>
<line y1="-15" x2="625" y2="-15" transform="matrix(0.640512 0.767948 -0.681776 0.731561 55 208)" stroke="#D3AD7F" stroke-opacity="0.75" stroke-width="30"/>
<line y1="-15" x2="600" y2="-15" transform="matrix(0.640451 -0.767999 0.842095 0.539329 464 690.639)" stroke="#D3AD7F" stroke-opacity="0.75" stroke-width="30"/>
<line y1="-15" x2="710.564" y2="-15" transform="matrix(0.640451 -0.767999 0.842095 0.539329 470.07 561.892)" stroke="#D3AD7F" stroke-opacity="0.75" stroke-width="30"/>
<line x1="909.228" y1="16" x2="802.636" y2="16" stroke="#D3AD7F" stroke-opacity="0.75" stroke-width="30"/>
<line x1="119.067" y1="16.3313" x2="12.4757" y2="16.3313" stroke="#D3AD7F" stroke-opacity="0.75" stroke-width="30"/>
<line y1="-15" x2="537.641" y2="-15" transform="matrix(-0.637572 0.770391 -0.843952 -0.536419 802.714 1.33215)" stroke="#D3AD7F" stroke-opacity="0.75" stroke-width="30"/>
<line y1="-15" x2="537.638" y2="-15" transform="matrix(-0.637539 -0.770418 0.843973 -0.536385 462.07 415.538)" stroke="#D3AD7F" stroke-opacity="0.75" stroke-width="30"/>
<line x1="70.2446" y1="999.915" x2="151.662" y2="999.915" stroke="#D3AD7F" stroke-opacity="0.75" stroke-width="30"/>
<line x1="766.547" y1="999.915" x2="849.18" y2="999.915" stroke="#D3AD7F" stroke-opacity="0.75" stroke-width="30"/>
<line x1="1008.29" y1="203.329" x2="1103.16" y2="203.329" stroke="#D3AD7F" stroke-opacity="0.75" stroke-width="30"/>
<line x1="1020.52" y1="999.915" x2="1101.94" y2="999.915" stroke="#D3AD7F" stroke-opacity="0.75" stroke-width="30"/>
<line x1="136.663" y1="1014.92" x2="136.663" y2="457.468" stroke="#D3AD7F" stroke-opacity="0.75" stroke-width="30"/>
<line x1="751.547" y1="1014.92" x2="751.547" y2="457.468" stroke="#D3AD7F" stroke-opacity="0.75" stroke-width="30"/>
<line y1="-15" x2="481.274" y2="-15" transform="matrix(0.640451 0.767999 -0.842095 0.539329 137.438 457.947)" stroke="#D3AD7F" stroke-opacity="0.75" stroke-width="30"/>
<line y1="-15" x2="481.274" y2="-15" transform="matrix(0.640451 -0.767999 0.842095 0.539329 462.542 837.323)" stroke="#D3AD7F" stroke-opacity="0.75" stroke-width="30"/>
<line y1="-15" x2="797.293" y2="-15" transform="matrix(3.9071e-05 -1 1 3.26264e-05 1029 1014.9)" stroke="#D3AD7F" stroke-opacity="0.75" stroke-width="30"/>
<line y1="-15" x2="797.32" y2="-15" transform="matrix(-0.00497887 -0.999988 0.999993 -0.00382385 1106.78 1015)" stroke="#D3AD7F" stroke-opacity="0.75" stroke-width="30"/>
<path d="M1165.35 193.035C1164.81 187.539 1168.83 182.696 1174.35 182.438C1207.35 180.897 1240.4 185.198 1271.67 195.137C1306.09 206.078 1337.57 223.601 1364 246.535C1390.43 269.47 1411.2 297.289 1424.94 328.139C1438.67 358.99 1445.05 392.161 1443.65 425.442C1442.25 458.723 1433.1 491.349 1416.81 521.144C1400.53 550.939 1377.48 577.219 1349.2 598.231C1320.92 619.243 1288.06 634.505 1252.82 642.998C1220.97 650.675 1187.83 652.662 1155.21 648.886C1149.53 648.229 1145.68 642.832 1146.71 637.257L1149.19 623.819C1150.15 618.578 1155.1 615.113 1160.44 615.717C1188.19 618.857 1216.37 617.13 1243.47 610.6C1273.67 603.321 1301.83 590.242 1326.07 572.235C1350.3 554.227 1370.06 531.706 1384.01 506.171C1397.97 480.637 1405.81 452.677 1407.01 424.155C1408.21 395.633 1402.75 367.205 1390.97 340.766C1379.2 314.328 1361.4 290.486 1338.75 270.831C1316.1 251.176 1289.13 236.16 1259.62 226.783C1233.28 218.409 1205.45 214.705 1177.65 215.838C1172.13 216.063 1167.22 211.998 1166.68 206.502L1165.35 193.035Z" fill="#D3AD7F" fill-opacity="0.75"/>
<path d="M446 544H480" stroke="#D3AD7F" stroke-opacity="0.75" stroke-width="30"/>
<path d="M1176.04 257.487C1176.52 252.118 1181.2 248.143 1186.59 248.807C1230.3 254.202 1270.58 273.715 1300.04 303.972C1331.66 336.452 1348.38 378.815 1346.71 422.261C1345.05 465.708 1325.13 506.9 1291.1 537.279C1259.5 565.493 1217.98 582.367 1174.11 585.036C1168.54 585.374 1163.91 580.842 1163.84 575.273L1163.68 562.549C1163.61 557.089 1167.96 552.687 1173.42 552.299C1208.17 549.824 1241.01 536.286 1266.1 513.89C1293.54 489.386 1309.61 456.161 1310.95 421.118C1312.29 386.074 1298.81 351.904 1273.3 325.707C1250.1 301.871 1218.56 286.302 1184.26 281.535C1178.65 280.755 1174.4 275.807 1174.9 270.206L1176.04 257.487Z" fill="#D3AD7F" fill-opacity="0.75"/>
</svg>
