<?xml version="1.0" encoding="UTF-8" standalone="no"?>
<!-- Created with Inkscape (http://www.inkscape.org/) -->

<svg
   width="134.91061mm"
   height="94.585312mm"
   viewBox="0 0 134.91061 94.585312"
   version="1.1"
   id="svg1"
   inkscape:version="1.3.2 (091e20e, 2023-11-25, custom)"
   sodipodi:docname="send-email.svg"
   xmlns:inkscape="http://www.inkscape.org/namespaces/inkscape"
   xmlns:sodipodi="http://sodipodi.sourceforge.net/DTD/sodipodi-0.dtd"
   xmlns="http://www.w3.org/2000/svg"
   xmlns:svg="http://www.w3.org/2000/svg">
  <sodipodi:namedview
     id="namedview1"
     pagecolor="#ffffff"
     bordercolor="#000000"
     borderopacity="0.25"
     inkscape:showpageshadow="2"
     inkscape:pageopacity="0.0"
     inkscape:pagecheckerboard="0"
     inkscape:deskcolor="#d1d1d1"
     inkscape:document-units="mm"
     inkscape:zoom="0.73139029"
     inkscape:cx="274.13544"
     inkscape:cy="320.62225"
     inkscape:window-width="1920"
     inkscape:window-height="1017"
     inkscape:window-x="-8"
     inkscape:window-y="-8"
     inkscape:window-maximized="1"
     inkscape:current-layer="layer1" />
  <defs
     id="defs1" />
  <g
     inkscape:label="Layer 1"
     inkscape:groupmode="layer"
     id="layer1"
     transform="translate(-32.426632,-63.686076)">
    <path
       id="path52"
       style="fill:#d3ad7f;fill-opacity:1"
       d="m 100.93233,80.489306 c -21.303665,9.24182 -38.951453,16.96875 -39.217683,17.17073 -1.1918,0.90414 -1.91802,3.736404 -1.31004,5.111224 0.2479,0.56123 0.0192,0.49732 45.436883,12.64176 l 11.13716,2.9779 1.1035,-2.12422 c 0.60708,-1.16849 6.74371,-12.80032 13.63679,-25.848374 7.72352,-14.62004 12.46337,-23.87905 12.35065,-24.12763 -0.37855,-0.8382 -2.00417,-2.01597 -3.18107,-2.30469 l -1.22211,-0.29993 z m -40.040373,23.407804 11.12448,25.5221 c 10.585208,24.28487 11.137528,25.4957 11.389328,24.97092 0.14558,-0.30336 4.39373,-8.36129 9.44021,-17.90675 5.0465,-9.54546 9.260595,-17.55034 9.364525,-17.78808 0.15191,-0.34745 -3.697935,-1.78997 -19.625185,-7.3546 -10.897528,-3.80737 -20.236438,-7.03968 -20.753378,-7.18304 z m 83.577993,-36.371064 -8.81615,20.03168 c -4.84877,11.01756 -8.71834,20.071664 -8.59956,20.119924 0.11878,0.0483 9.06907,2.46604 19.88963,5.37342 l 19.67366,5.2866 -5.46374,-12.70702 C 158.14873,98.642006 153.16561,87.209596 150.0801,80.225066 Z M 55.352947,126.91429 c -5.494893,2.35063 -9.399633,4.13124 -9.474026,4.3206 -0.06961,0.17717 -0.0011,0.4091 0.151773,0.51504 0.19243,0.13341 3.18787,-1.07608 9.740313,-3.93214 8.88149,-3.87123 9.44634,-4.14846 9.19605,-4.51343 -0.2476,-0.36109 -0.93455,-0.10305 -9.61411,3.60993 z m 7.14353,6.12005 c -5.36711,2.26474 -6.21152,2.75075 -5.56389,3.19972 0.18736,0.12989 2.1356,-0.61744 5.98088,-2.2935 5.30106,-2.3106 5.68439,-2.5133 5.43661,-2.87479 -0.2432,-0.35477 -0.75674,-0.18214 -5.8536,1.96857 z M 125.029,112.06112 c -0.11551,0.0504 -1.23644,2.43355 -2.49056,5.296 -1.25414,2.86245 -2.4682,5.42127 -2.69809,5.68635 -0.22991,0.26513 -0.71329,0.53156 -1.07418,0.59168 -0.3609,0.0601 -3.1541,-0.75673 -6.20682,-1.81508 -3.48658,-1.20876 -5.65753,-1.81867 -5.83904,-1.63996 -0.15893,0.15644 -1.93824,2.79679 -3.95407,5.8674 -2.01581,3.07061 -7.180795,10.92687 -11.477415,17.45813 -4.29661,6.53129 -7.8387,11.92375 -7.87148,11.9832 -0.0328,0.0595 0.18295,0.46552 0.4797,0.90257 0.63907,0.94119 2.49737,1.88013 3.7209,1.87998 0.7076,-8e-5 8.10394,-3.15038 39.386945,-16.77718 42.06528,-18.32294 39.50579,-17.10032 40.11688,-19.15969 0.35359,-1.19155 0.25507,-2.99169 -0.17166,-3.13951 -0.66323,-0.22974 -41.72822,-7.21797 -41.92109,-7.1339 z m -73.115906,34.75575 c -19.521464,8.50894 -19.662494,8.57477 -19.452033,9.05762 0.21074,0.48349 0.333747,0.43303 19.767143,-8.11094 18.403013,-8.09093 19.549223,-8.62468 19.452033,-9.05763 -0.0977,-0.43512 -1.17023,0.005 -19.767143,8.11095 z" />
  </g>
</svg>
