<?xml version="1.0" encoding="UTF-8" standalone="no"?>
<!-- Created with Inkscape (http://www.inkscape.org/) -->

<svg
   width="335.60699mm"
   height="82.02459mm"
   viewBox="0 0 335.60699 82.02459"
   version="1.1"
   id="svg1"
   xml:space="preserve"
   inkscape:version="1.3.2 (091e20e, 2023-11-25, custom)"
   sodipodi:docname="white-square.svg"
   xmlns:inkscape="http://www.inkscape.org/namespaces/inkscape"
   xmlns:sodipodi="http://sodipodi.sourceforge.net/DTD/sodipodi-0.dtd"
   xmlns="http://www.w3.org/2000/svg"
   xmlns:svg="http://www.w3.org/2000/svg"><sodipodi:namedview
     id="namedview1"
     pagecolor="#ffffff"
     bordercolor="#000000"
     borderopacity="0.25"
     inkscape:showpageshadow="2"
     inkscape:pageopacity="0.0"
     inkscape:pagecheckerboard="0"
     inkscape:deskcolor="#d1d1d1"
     inkscape:document-units="mm"
     inkscape:zoom="0.35055065"
     inkscape:cx="58.479424"
     inkscape:cy="358.00818"
     inkscape:window-width="1920"
     inkscape:window-height="1001"
     inkscape:window-x="-9"
     inkscape:window-y="-9"
     inkscape:window-maximized="1"
     inkscape:current-layer="layer1" /><defs
     id="defs1" /><g
     inkscape:label="Layer 1"
     inkscape:groupmode="layer"
     id="layer1"
     transform="translate(14.000869,-143.72732)"><path
       style="fill:#ffffff"
       d="m -3.2704179,225.34653 c -4.83686,-1.05241 -9.0099751,-5.08512 -10.3077151,-9.96092 -0.563668,-2.11778 -0.563638,-59.19612 3.2e-5,-61.31391 0.972755,-3.65478 3.7283511,-7.10228 6.9948621,-8.75121 3.230923,-1.63096 2.432559,-1.593 33.4988869,-1.593 31.383737,0 30.342557,-0.0534 33.73693,1.73029 2.110996,1.1093 4.654717,3.63323 5.657456,5.61344 1.554684,3.07019 1.483737,1.45986 1.483737,33.67765 0,28.73673 -0.01458,29.60466 -0.525261,31.25804 -1.433034,4.63963 -5.49575,8.33551 -10.276705,9.3488 -2.519273,0.53394 -57.80474894,0.52552 -60.2622229,-0.009 z M 50.863129,210.06257 c 0.481083,-0.32742 1.123768,-0.93146 1.42819,-1.34231 0.551735,-0.74464 0.553495,-0.8209 0.553495,-23.99154 0,-23.17064 -0.0018,-23.2469 -0.553495,-23.99154 -0.304422,-0.41085 -0.947107,-1.01489 -1.42819,-1.34231 l -0.874695,-0.59532 H 26.995673 c -25.4807859,0 -23.8338829,-0.11504 -25.2679099,1.76507 l -0.74128104,0.97187 v 23.17163 23.17164 l 0.63197404,0.88608 c 0.347585,0.48735 1.002429,1.11198 1.455208,1.38807 0.791713,0.48278 1.705663,0.50204 23.8690019,0.50299 l 23.045768,9.9e-4 z m -33.960293,-14.521 c -1.124737,-0.6538 -1.23198,-1.59504 -1.23198,-10.81285 0,-9.29711 0.10665,-10.19699 1.283124,-10.82662 0.354275,-0.1896 3.74285,-0.28588 10.061811,-0.28588 h 9.52764 l 0.742358,0.63855 0.742358,0.63855 v 9.8354 9.8354 l -0.742358,0.63855 -0.742358,0.63855 -9.576392,-0.008 c -6.317319,-0.005 -9.742405,-0.10454 -10.064203,-0.2916 z m 148.847034,29.98833 -2.1887,-0.0769 0.072,-10.57263 c 0.0396,-5.81494 0.0567,-10.57259 0.038,-10.57254 -0.0187,6e-5 -0.97124,0.93407 -2.11666,2.07559 -3.41057,3.39894 -7.48726,5.05321 -12.47864,5.06366 -8.93218,0.0187 -16.49228,-5.44531 -19.15594,-13.84484 -0.7245,-2.2846 -0.92187,-7.11378 -0.39239,-9.60068 1.25084,-5.87507 5.00823,-10.71116 10.36521,-13.34095 2.8912,-1.41931 4.75839,-1.87322 8.35277,-2.03053 5.54227,-0.24256 9.51945,1.21695 13.13659,4.82074 l 2.17478,2.16676 0.0742,-3.06681 0.0742,-3.0668 h 2.38125 2.38125 l 0.0674,25.96651 c 0.0536,20.64648 -5.9e-4,25.98596 -0.26459,26.06146 -0.18261,0.0522 -1.31693,0.0603 -2.52071,0.018 z m -11.93488,-19.17166 c 0.96329,-0.35019 2.31626,-0.96772 3.00661,-1.37229 2.90567,-1.70284 5.6964,-5.51282 6.61153,-9.02628 0.52422,-2.01258 0.51695,-5.82347 -0.015,-7.88547 -1.67816,-6.50471 -7.70356,-11.26304 -14.28252,-11.27907 -3.76072,-0.009 -7.73302,1.4812 -10.43348,3.91451 -4.7891,4.31534 -6.16044,12.33449 -3.15373,18.44199 1.96006,3.98145 6.03643,6.9638 10.65379,7.79453 2.21045,0.3977 5.6275,0.1338 7.61282,-0.58792 z m -51.46152,4.95049 c -3.930428,-0.7412 -7.999415,-3.11364 -10.503298,-6.12398 -1.835557,-2.20683 -3.418901,-6.13084 -3.418901,-8.47308 v -0.87045 h 2.479879 2.479879 l 0.126505,1.31656 c 0.407066,4.23642 4.64918,8.30343 9.681756,9.2821 8.68007,1.68801 16.7817,-5.31959 14.7109,-12.72436 -0.38987,-1.39412 -0.72593,-1.9567 -1.81565,-3.03955 -2.17528,-2.16155 -6.31761,-3.97671 -12.31744,-5.39745 -6.890748,-1.63171 -10.576098,-4.03416 -12.502167,-8.15008 -0.752059,-1.60711 -0.845341,-2.086 -0.941007,-4.8309 -0.09089,-2.60796 -0.02379,-3.2904 0.465769,-4.73672 0.77207,-2.28098 1.983091,-4.09652 3.936785,-5.90198 6.18194,-5.71288 16.21528,-5.52208 22.16633,0.42153 2.52876,2.52561 4.07221,5.7695 4.07221,8.55866 v 0.88038 l -2.44472,-0.0761 -2.44471,-0.0761 -0.17725,-1.24326 c -0.20392,-1.4303 -1.29395,-3.57558 -2.30708,-4.54055 -4.28162,-4.07812 -11.77486,-4.07376 -15.844569,0.009 -1.921802,1.92807 -2.548778,3.43825 -2.565104,6.17853 -0.01142,1.91693 0.08829,2.4538 0.663401,3.57187 1.309011,2.54486 3.602473,3.74142 10.616572,5.53895 8.67557,2.22331 13.24227,5.0575 15.49566,9.61693 0.92177,1.86509 0.99346,2.1856 1.08465,4.84994 0.0798,2.33138 -0.003,3.18123 -0.45195,4.64917 -1.60676,5.25153 -6.3531,9.60746 -12.03668,11.04659 -2.38921,0.60498 -5.81734,0.71524 -8.20977,0.26408 z m 86.14733,-0.39119 c -5.68336,-1.48904 -9.48978,-5.35988 -10.81541,-10.99845 -0.35424,-1.50675 -0.45056,-4.00776 -0.54679,-14.19818 l -0.11682,-12.36927 h 2.40371 2.4037 l 0.007,10.12031 c 0.009,13.70307 0.2785,16.09283 2.16766,19.23926 1.81636,3.02517 4.66714,4.37856 9.2026,4.36886 4.24945,-0.009 6.5566,-1.08537 9.15052,-4.26875 2.45109,-3.00808 2.75573,-5.09696 2.75573,-18.8955 v -10.56418 h 2.38125 2.38125 v 18.65312 18.65313 h -2.24029 -2.2403 l -0.0748,-2.97657 c -0.0666,-2.64927 -0.11144,-2.89396 -0.40796,-2.22537 -0.18323,0.41315 -1.04266,1.46071 -1.90986,2.3279 -1.70086,1.70087 -3.85579,2.85346 -6.30282,3.37116 -2.1432,0.45342 -5.98605,0.3421 -8.19818,-0.23747 z m 43.99609,0.14109 c -6.46001,-1.4281 -11.1658,-5.0402 -13.87608,-10.65111 -1.45435,-3.01084 -1.72798,-4.37238 -1.71534,-8.53505 0.0103,-3.40592 0.0887,-4.06741 0.69819,-5.8944 0.96132,-2.88162 2.63133,-5.55319 4.82965,-7.72614 3.84292,-3.79858 8.54285,-5.68486 14.16463,-5.68486 5.64709,0 10.17027,1.97781 13.39413,5.85673 0.52365,0.63005 1.02817,1.17546 1.12117,1.21202 0.093,0.0366 0.16907,-1.33265 0.16907,-3.0427 v -3.10919 h 2.31878 2.31878 v 18.52083 18.52083 h -2.31878 -2.31878 v -3.10915 c 0,-1.71003 -0.0153,-3.10902 -0.0341,-3.10885 -0.0188,1.6e-4 -0.97125,0.93593 -2.11667,2.07949 -3.41974,3.41414 -7.65644,5.09014 -12.74937,5.04352 -1.26379,-0.0116 -3.01218,-0.17896 -3.88531,-0.37197 z m 8.89518,-4.70039 c 0.96329,-0.35019 2.33251,-0.97537 3.04271,-1.3893 2.89859,-1.68937 5.65118,-5.46082 6.57543,-9.00927 0.52422,-2.01258 0.51695,-5.82347 -0.015,-7.88547 -1.79681,-6.96462 -8.16023,-11.61633 -15.3233,-11.20144 -7.99328,0.46297 -13.66639,6.24133 -14.07708,14.33825 -0.40608,8.00615 4.5096,14.35433 12.18444,15.73515 2.21045,0.3977 5.6275,0.1338 7.61282,-0.58792 z m 56.85378,4.69951 c -3.96635,-0.89119 -6.98417,-2.5584 -9.78958,-5.4083 -2.29417,-2.33055 -3.6864,-4.56982 -4.69988,-7.55927 -0.655,-1.93207 -0.7174,-2.46279 -0.71543,-6.08542 0.002,-3.65673 0.0601,-4.13516 0.73964,-6.08542 1.06777,-3.06461 2.63514,-5.5395 4.94312,-7.8052 2.35191,-2.30884 4.22325,-3.49221 7.22939,-4.57161 2.88621,-1.03635 7.02538,-1.27865 10.12529,-0.59271 8.61003,1.90518 14.85973,9.29996 15.37756,18.19505 l 0.15017,2.57968 h -16.98802 -16.98802 l 0.18303,1.25677 c 1.07635,7.3908 8.64444,13.0233 16.15788,12.02539 4.75882,-0.63206 8.98083,-3.46449 10.73188,-7.19973 l 0.6086,-1.29824 2.57635,-0.0108 2.57635,-0.0109 -0.63479,1.43536 c -2.15536,4.87366 -6.77609,8.97601 -12.01445,10.66658 -2.57598,0.83135 -6.99246,1.0477 -9.56909,0.46876 z m 18.07568,-23.08788 c -2.40951,-9.28232 -12.57918,-13.85822 -20.98374,-9.44175 -2.12669,1.11755 -4.49747,3.42133 -5.72764,5.5658 -0.77124,1.34444 -1.081,2.1689 -1.85388,4.93428 -0.12212,0.43693 0.69029,0.46302 14.41538,0.46302 h 14.5448 z m -50.88401,4.03489 v -18.65312 h 2.38125 2.38125 l 0.008,2.71198 c 0.007,2.39416 0.0515,2.64996 0.37621,2.18281 1.71367,-2.46553 2.24703,-3.07631 3.30286,-3.7823 1.48025,-0.98976 3.28332,-1.60404 5.33897,-1.8189 l 1.55688,-0.16273 v 2.50454 2.50453 l -1.63693,0.30442 c -4.66181,0.86695 -7.91507,4.17297 -8.66706,8.8076 -0.15935,0.98214 -0.27619,6.40603 -0.27734,12.87565 l -0.002,11.17865 h -2.38125 -2.38125 z"
       id="path1" /></g></svg>
